<svg width="300" height="300" viewBox="0 0 300 300" fill="none" xmlns="http://www.w3.org/2000/svg">
<g clip-path="url(#clip0_5921_1512)">
<path d="M212.88 51.0308C200.023 46.4569 170.156 29.9658 153.541 0.592773" stroke="white" stroke-width="4" stroke-linecap="round" stroke-linejoin="round"/>
<path d="M32.637 0.22168C51.7986 13.2023 78.6249 60.748 32.637 147.086" stroke="white" stroke-width="4" stroke-linecap="round" stroke-linejoin="round"/>
<path d="M94.9434 154.133C77.1416 142.388 33.2306 130.248 0.000640869 175.643" stroke="white" stroke-width="4" stroke-linecap="round" stroke-linejoin="round"/>
<path d="M154.391 271.85C153.203 277.55 150.756 291.089 150.471 299.64" stroke="white" stroke-width="4" stroke-linecap="round" stroke-linejoin="round"/>
<path d="M284.119 20.3389C293.651 24.6283 307.663 36.9246 287.455 51.7944L284.119 85.6328C283.007 91.5109 274.491 101.932 249.327 96.5946C240.035 95.2375 219.696 93.9493 212.676 99.6528C192.549 111.494 149.734 144.017 186.478 204.465C190.083 210.395 195.58 216.706 202.252 226.808C210.006 241.878 226.656 277.504 231.221 299.45" stroke="white" stroke-width="4" stroke-linecap="round" stroke-linejoin="round"/>
</g>
<defs>
<clipPath id="clip0_5921_1512">
<rect width="300" height="300" fill="white"/>
</clipPath>
</defs>
</svg>
