<svg width="300" height="300" viewBox="0 0 300 300" fill="none" xmlns="http://www.w3.org/2000/svg">
<g clip-path="url(#clip0_5921_1506)">
<path d="M87.291 51.0308C100.148 46.4569 130.015 29.9658 146.63 0.592773" stroke="white" stroke-width="4" stroke-linecap="round" stroke-linejoin="round"/>
<path d="M267.534 0.22168C248.372 13.2023 221.546 60.748 267.534 147.086" stroke="white" stroke-width="4" stroke-linecap="round" stroke-linejoin="round"/>
<path d="M205.228 154.133C223.029 142.388 266.94 130.248 300.17 175.643" stroke="white" stroke-width="4" stroke-linecap="round" stroke-linejoin="round"/>
<path d="M145.779 271.85C146.967 277.55 149.413 291.089 149.698 299.64" stroke="white" stroke-width="4" stroke-linecap="round" stroke-linejoin="round"/>
<path d="M16.0512 20.3389C6.51926 24.6283 -7.4927 36.9246 12.715 51.7944L16.0512 85.6328C17.1633 91.5109 25.6785 101.932 50.8428 96.5946C60.1349 95.2375 80.4739 93.9493 87.4936 99.6528C107.621 111.494 150.436 144.017 113.692 204.465C110.087 210.395 104.59 216.706 97.9178 226.808C90.1635 241.878 73.5136 277.504 68.9488 299.45" stroke="white" stroke-width="4" stroke-linecap="round" stroke-linejoin="round"/>
</g>
<defs>
<clipPath id="clip0_5921_1506">
<rect width="300" height="300" fill="white"/>
</clipPath>
</defs>
</svg>
