<svg width="300" height="300" viewBox="0 0 300 300" fill="none" xmlns="http://www.w3.org/2000/svg">
<g clip-path="url(#clip0_5921_1462)">
<path d="M53.4532 57.5215C71.5593 99.0356 86.6389 189.776 0.478516 212.867" stroke="white" stroke-width="4" stroke-linecap="round" stroke-linejoin="round"/>
<path d="M247.025 57.5215C228.919 99.0356 213.84 189.776 300 212.867" stroke="white" stroke-width="4" stroke-linecap="round" stroke-linejoin="round"/>
<path d="M110.482 242.581C77.914 238.12 10.1993 229.263 -0.119141 229.521" stroke="white" stroke-width="4" stroke-linecap="round" stroke-linejoin="round"/>
<path d="M189.399 242.581C221.967 238.12 289.682 229.263 300 229.521" stroke="white" stroke-width="4" stroke-linecap="round" stroke-linejoin="round"/>
<path d="M36.791 0.1875C38.7329 14.5976 38.1827 46.8286 61.3799 65.5044C77.0249 75.5794 115.097 96.3193 142.226 98.6783H156.724C179.004 93.5179 226.758 79.6585 239.536 65.5044C248.46 56.793 265.657 31.5732 263.049 0.385238" stroke="white" stroke-width="4" stroke-linecap="round" stroke-linejoin="round"/>
<path d="M289.25 0C287.43 7.03018 289.25 12.1455 278.14 24.292C269.666 30.8831 260.815 21.9947 263.828 0" stroke="white" stroke-width="4" stroke-linecap="round" stroke-linejoin="round"/>
<path d="M11.3184 0C13.1387 7.03018 11.3184 12.1455 22.4287 24.292C30.9027 30.8831 39.7533 21.9947 36.7404 0" stroke="white" stroke-width="4" stroke-linecap="round" stroke-linejoin="round"/>
<path d="M107.723 25.7089C124.735 23.2962 165.478 19.9185 192.352 25.7089" stroke="white" stroke-width="4" stroke-linecap="round" stroke-linejoin="round"/>
<path d="M116.26 39.8135C127.333 46.6185 156.421 56.1456 184.186 39.8135" stroke="white" stroke-width="4" stroke-linecap="round" stroke-linejoin="round"/>
</g>
<defs>
<clipPath id="clip0_5921_1462">
<rect width="300" height="300" fill="white"/>
</clipPath>
</defs>
</svg>
