<svg width="300" height="300" viewBox="0 0 300 300" fill="none" xmlns="http://www.w3.org/2000/svg">
<g clip-path="url(#clip0_5921_1863)">
<path d="M259.48 96.793C256.367 98.5105 250.463 103.169 251.751 108.064C252.253 128.056 250.588 175.451 239.916 205.095C235.97 219.793 230.447 252.081 239.916 263.642C243.861 270.189 251.751 287.061 251.751 302.179" stroke="white" stroke-width="4" stroke-linecap="round" stroke-linejoin="round"/>
<path d="M38.6879 96.793C41.8008 98.5105 47.7047 103.169 46.4166 108.064C45.9152 128.056 47.5805 175.451 58.2523 205.095C62.1976 219.793 67.721 252.081 58.2523 263.642C54.3071 270.189 46.4166 287.061 46.4166 302.179" stroke="white" stroke-width="4" stroke-linecap="round" stroke-linejoin="round"/>
<path d="M0 62.9379C4.57175 53.9976 18.4699 34.2883 37.4883 26.9735C55.7753 24.4336 94.8485 15.3917 104.845 -0.457031" stroke="white" stroke-width="4" stroke-linecap="round" stroke-linejoin="round"/>
<path d="M69.9629 29.249C76.4617 31.3095 94.3778 34.3679 114.051 30.1174C123.766 27.9416 142.681 26.7473 140.616 39.3771" stroke="white" stroke-width="4" stroke-linecap="round" stroke-linejoin="round"/>
<path d="M300 62.9379C295.428 53.9976 281.53 34.2883 262.512 26.9735C244.225 24.4336 205.151 15.3917 195.155 -0.457031" stroke="white" stroke-width="4" stroke-linecap="round" stroke-linejoin="round"/>
<path d="M230.037 29.249C223.538 31.3095 205.622 34.3679 185.949 30.1174C176.234 27.9416 157.319 26.7473 159.384 39.3771" stroke="white" stroke-width="4" stroke-linecap="round" stroke-linejoin="round"/>
</g>
<defs>
<clipPath id="clip0_5921_1863">
<rect width="300" height="300" fill="white"/>
</clipPath>
</defs>
</svg>
