<svg width="300" height="300" viewBox="0 0 300 300" fill="none" xmlns="http://www.w3.org/2000/svg">
<g clip-path="url(#clip0_5921_1604)">
<path d="M280.147 1.16524C277.148 7.6742 266.737 24.3882 242.904 28.3412C239.942 28.8324 237.09 27.3218 235.38 24.8549C230.474 17.7779 222.757 9.41751 213.693 15.1554C213.288 15.4115 212.881 15.6536 212.446 15.8526C181.821 29.8475 120.802 53.2768 133.418 -0.743164" stroke="white" stroke-width="4" stroke-linecap="round" stroke-linejoin="round"/>
<path d="M-5.9996 273.857C25.0688 281.529 27.2246 283.217 51.0052 287.213M51.0052 287.213C193.271 311.113 229.417 265.669 225.969 230.881C221.099 181.739 252.256 109.148 262.808 71.6054C268.887 54.8078 280.921 17.1444 280.42 0.871582M51.0052 287.213V309.244" stroke="white" stroke-width="4" stroke-linecap="round" stroke-linejoin="round"/>
<path d="M229.243 112.324C245.651 105.128 239.186 123.675 234.626 125.898C244.174 149.863 229.555 161.471 221.052 164.28C201.205 169.709 167.536 166.542 153.181 164.28C124.472 155.593 103.566 137.678 90.226 129.174C104.081 128.987 163.869 116.146 192.031 109.749C208.882 104.507 218.85 109.909 222.517 114.277L229.243 112.324Z" stroke="white" stroke-width="4" stroke-linecap="round" stroke-linejoin="round"/>
<path d="M234.967 126.262C213.604 129.128 155.168 133.804 92.329 129.584" stroke="white" stroke-width="4" stroke-linecap="round" stroke-linejoin="round"/>
</g>
<defs>
<clipPath id="clip0_5921_1604">
<rect width="300" height="300" fill="white"/>
</clipPath>
</defs>
</svg>
