<svg width="300" height="300" viewBox="0 0 300 300" fill="none" xmlns="http://www.w3.org/2000/svg">
<g clip-path="url(#clip0_5921_1435)">
<path d="M19.3545 1.16524C22.3543 7.6742 32.7647 24.3882 56.5983 28.3412C59.5596 28.8324 62.4119 27.3218 64.1221 24.8549C69.0279 17.7779 76.7453 9.41751 85.8093 15.1554C86.2139 15.4115 86.6208 15.6536 87.0563 15.8526C117.681 29.8475 178.7 53.2768 166.084 -0.743164" stroke="white" stroke-width="4" stroke-linecap="round" stroke-linejoin="round"/>
<path d="M305.502 273.858C274.433 281.53 272.277 283.218 248.497 287.213M248.497 287.213C106.231 311.114 70.0853 265.669 73.5328 230.881C78.4027 181.739 47.246 109.149 36.6941 71.6059C30.6146 54.8083 18.5809 17.1448 19.0816 0.87207M248.497 287.213V309.244" stroke="white" stroke-width="4" stroke-linecap="round" stroke-linejoin="round"/>
<path d="M70.2591 112.324C53.8508 105.128 60.3158 123.676 64.8763 125.898C55.3277 149.863 69.9471 161.472 78.4503 164.28C98.2965 169.71 131.966 166.542 146.32 164.28C175.03 155.593 195.936 137.678 209.276 129.175C195.421 128.988 135.633 116.147 107.471 109.75C90.6202 104.507 80.6516 109.909 76.985 114.278L70.2591 112.324Z" stroke="white" stroke-width="4" stroke-linecap="round" stroke-linejoin="round"/>
<path d="M64.5352 126.263C85.8983 129.128 144.334 133.805 207.173 129.584" stroke="white" stroke-width="4" stroke-linecap="round" stroke-linejoin="round"/>
</g>
<defs>
<clipPath id="clip0_5921_1435">
<rect width="300" height="300" fill="white"/>
</clipPath>
</defs>
</svg>
