<svg width="300" height="400" viewBox="0 0 300 400" fill="none" xmlns="http://www.w3.org/2000/svg">
  <!-- Left profile face outline -->
  <path d="M 70 100 Q 40 80 40 140 Q 40 200 70 250 Q 100 300 150 300 Q 200 300 230 270 Q 260 240 260 190 Q 260 140 230 120 Q 200 100 150 100 Q 110 100 70 100" stroke="white" stroke-width="4" fill="none" opacity="0.9"/>
  <!-- Profile nose -->
  <path d="M 40 180 Q 25 190 35 205 Q 45 210 55 200" stroke="white" stroke-width="3" fill="none"/>
  <!-- Profile eye -->
  <circle cx="130" cy="160" r="12" stroke="white" stroke-width="3" fill="none"/>
  <!-- Profile mouth -->
  <path d="M 50 230 Q 65 240 80 230" stroke="white" stroke-width="3" fill="none"/>
  <!-- Ear -->
  <ellipse cx="230" cy="170" rx="20" ry="35" stroke="white" stroke-width="3" fill="none"/>
  <text x="50" y="50" fill="white" font-size="16" font-weight="bold">LEFT PROFILE</text>
</svg>