<svg width="300" height="400" viewBox="0 0 300 400" fill="none" xmlns="http://www.w3.org/2000/svg">
  <!-- Masculine face outline (more angular) -->
  <path d="M 150 100 Q 110 90 80 130 Q 70 170 70 210 Q 70 260 80 290 Q 110 320 150 320 Q 190 320 220 290 Q 230 260 230 210 Q 230 170 220 130 Q 190 90 150 100" stroke="white" stroke-width="4" fill="none" opacity="0.9"/>
  <!-- Strong jawline -->
  <path d="M 80 290 Q 150 330 220 290" stroke="white" stroke-width="5" fill="none"/>
  <!-- Eyes -->
  <rect x="110" y="160" width="20" height="15" stroke="white" stroke-width="3" fill="none"/>
  <rect x="170" y="160" width="20" height="15" stroke="white" stroke-width="3" fill="none"/>
  <!-- Strong brow -->
  <path d="M 105 145 Q 150 130 195 145" stroke="white" stroke-width="4" fill="none"/>
  <!-- Nose -->
  <path d="M 150 185 L 140 210 L 150 220 L 160 210 Z" stroke="white" stroke-width="3" fill="none"/>
  <!-- Mouth -->
  <rect x="125" y="240" width="50" height="12" stroke="white" stroke-width="3" fill="none"/>
  <!-- Center line -->
  <line x1="150" y1="100" x2="150" y2="320" stroke="white" stroke-width="3" opacity="0.7"/>
</svg>