<svg width="300" height="300" viewBox="0 0 300 300" fill="none" xmlns="http://www.w3.org/2000/svg">
<g clip-path="url(#clip0_5921_1807)">
<path d="M24.8479 299.437C21.7967 256.11 16.6096 160.392 20.2711 124.143C22.2544 93.0205 49.4731 21.0676 150.089 18.2121L150.561 18.2119C249.354 20.9341 279.579 93.0214 281.563 124.144C285.224 160.393 280.037 256.11 276.986 299.438" stroke="white" stroke-width="4" stroke-linecap="round" stroke-linejoin="round"/>
<path d="M19.3873 176.996C13.156 175.274 4.43235 178.62 19.3873 205.775" stroke="white" stroke-width="4" stroke-linecap="round" stroke-linejoin="round"/>
<path d="M282.743 176.997C288.974 175.275 297.698 178.621 282.743 205.776" stroke="white" stroke-width="4" stroke-linecap="round" stroke-linejoin="round"/>
<path d="M28.9585 232.507C27.7719 225.95 40.8366 219.992 102.588 248.619" stroke="white" stroke-width="4" stroke-linecap="round" stroke-linejoin="round"/>
<path d="M271.066 232.507C272.252 225.95 259.188 219.992 197.437 248.619" stroke="white" stroke-width="4" stroke-linecap="round" stroke-linejoin="round"/>
<path d="M49.7217 258.345C61.0609 257.805 88.4189 257.805 107.138 262.125C97.3583 269.504 72.1841 279.079 49.7217 258.345Z" stroke="white" stroke-width="4" stroke-linecap="round" stroke-linejoin="round"/>
<path d="M250.303 258.345C238.964 257.805 211.605 257.805 192.887 262.125C202.666 269.504 227.84 279.079 250.303 258.345Z" stroke="white" stroke-width="4" stroke-linecap="round" stroke-linejoin="round"/>
</g>
<defs>
<clipPath id="clip0_5921_1807">
<rect width="300" height="300" fill="white"/>
</clipPath>
</defs>
</svg>
