<svg width="300" height="300" viewBox="0 0 300 300" fill="none" xmlns="http://www.w3.org/2000/svg">
<g clip-path="url(#clip0_5921_1472)">
<path d="M50.3721 75.9492C61.6972 84.0273 83.2807 104.509 98.4514 159.767" stroke="white" stroke-width="4" stroke-linecap="round" stroke-linejoin="round"/>
<path d="M249.628 75.9492C238.303 84.0273 216.719 104.509 201.549 159.767" stroke="white" stroke-width="4" stroke-linecap="round" stroke-linejoin="round"/>
<path d="M96.7078 110.74C101.182 119.444 107.836 141.538 98.66 160.28C96.301 174.515 96.7078 206.305 117.207 219.58M117.207 219.58L82.875 301.151M117.207 219.58H127.628" stroke="white" stroke-width="4" stroke-linecap="round" stroke-linejoin="round"/>
<path d="M203.292 110.74C198.818 119.444 192.164 141.538 201.34 160.28C203.699 174.515 203.292 206.305 182.793 219.58M182.793 219.58L217.125 301.151M182.793 219.58H172.372" stroke="white" stroke-width="4" stroke-linecap="round" stroke-linejoin="round"/>
<path d="M124.055 147.748V195.987C123.75 209.552 128.49 236.589 149.888 236.224" stroke="white" stroke-width="4" stroke-linecap="round" stroke-linejoin="round"/>
<path d="M175.723 147.748V195.987C176.028 209.552 171.288 236.589 149.889 236.224" stroke="white" stroke-width="4" stroke-linecap="round" stroke-linejoin="round"/>
</g>
<defs>
<clipPath id="clip0_5921_1472">
<rect width="300" height="300" fill="white"/>
</clipPath>
</defs>
</svg>
