<svg width="300" height="300" viewBox="0 0 300 300" fill="none" xmlns="http://www.w3.org/2000/svg">
<g clip-path="url(#clip0_5921_1942)">
<path d="M174.025 289.266L185.995 300.588" stroke="white" stroke-width="4" stroke-linecap="round" stroke-linejoin="round"/>
<path d="M214.217 -0.199219C215.014 2.98727 214.864 9.47266 207.892 9.92236C209.86 19.2003 209.297 36.8002 191.304 32.9765C180.47 29.6352 158.312 31.0873 156.355 63.6259C155.132 73.2081 156.355 81.7041 165.529 103.076C170.19 116.328 181.982 143.688 188.384 151.639C217.14 187.355 239.428 195.443 251.769 233.964C254.929 245.993 255.194 275.983 230.974 299.714" stroke="white" stroke-width="4" stroke-linecap="round" stroke-linejoin="round"/>
<path d="M169.907 9.9248L155.484 -0.196289M86.7345 -0.196289C87.9424 12.4573 82.9471 47.4266 69.6019 62.5645" stroke="white" stroke-width="4" stroke-linecap="round" stroke-linejoin="round"/>
<path d="M107.787 63.4096C97.0525 56.7774 70.2155 51.0876 48.744 81.3862C44.9666 90.0344 37.7101 111.327 38.9029 127.311C38.5965 132.709 38.2611 139.597 37.9689 147.166M38.9029 214.39V303.557M38.9029 214.39C36.5368 202.924 37.0288 171.521 37.9689 147.166M38.9029 214.39C47.1284 191.185 41.7075 159.905 37.9689 147.166" stroke="white" stroke-width="4" stroke-linecap="round" stroke-linejoin="round"/>
<path d="M138.006 125.094C138.923 134.166 137.639 156.226 125.162 171.883C127.2 201.038 129.443 267.603 122.103 300.631" stroke="white" stroke-width="4" stroke-linecap="round" stroke-linejoin="round"/>
</g>
<defs>
<clipPath id="clip0_5921_1942">
<rect width="300" height="300" fill="white"/>
</clipPath>
</defs>
</svg>
