<svg width="300" height="300" viewBox="0 0 300 300" fill="none" xmlns="http://www.w3.org/2000/svg">
<g clip-path="url(#clip0_5921_1924)">
<path d="M116.436 289.266L104.466 300.588" stroke="white" stroke-width="4" stroke-linecap="round" stroke-linejoin="round"/>
<path d="M76.2435 -0.199219C75.4469 2.98727 75.5969 9.47266 82.5694 9.92236C80.6014 19.2003 81.1636 36.8002 99.1573 32.9765C109.991 29.6352 132.149 31.0873 134.106 63.6259C135.329 73.2081 134.106 81.7041 124.931 103.076C120.271 116.328 108.479 143.688 102.077 151.639C73.3209 187.355 51.0333 195.443 38.692 233.964C35.532 245.993 35.2669 275.983 59.4874 299.714" stroke="white" stroke-width="4" stroke-linecap="round" stroke-linejoin="round"/>
<path d="M120.553 9.92383L134.976 -0.197266M203.726 -0.197266C202.518 12.4564 207.513 47.4257 220.858 62.5635" stroke="white" stroke-width="4" stroke-linecap="round" stroke-linejoin="round"/>
<path d="M182.674 63.4086C193.408 56.7764 220.245 51.0866 241.717 81.3852C245.494 90.0334 252.751 111.326 251.558 127.31C251.864 132.708 252.2 139.596 252.492 147.165M251.558 214.389V303.556M251.558 214.389C253.924 202.923 253.432 171.52 252.492 147.165M251.558 214.389C243.332 191.184 248.753 159.905 252.492 147.165" stroke="white" stroke-width="4" stroke-linecap="round" stroke-linejoin="round"/>
<path d="M152.454 125.094C151.537 134.166 152.821 156.226 165.298 171.883C163.26 201.038 161.017 267.603 168.357 300.631" stroke="white" stroke-width="4" stroke-linecap="round" stroke-linejoin="round"/>
</g>
<defs>
<clipPath id="clip0_5921_1924">
<rect width="300" height="300" fill="white"/>
</clipPath>
</defs>
</svg>
