<svg width="300" height="300" viewBox="0 0 300 300" fill="none" xmlns="http://www.w3.org/2000/svg">
<g clip-path="url(#clip0_5921_1408)">
<path d="M22.5 135.347C33.5 141.43 57.25 157.597 64.25 173.597C65.5 176.68 67.25 186.597 64.25 201.597C62.8333 209.013 61.15 226.547 65.75 237.347C72.4167 253.263 92.85 278.447 121.25 251.847" stroke="white" stroke-width="4" stroke-linecap="round" stroke-linejoin="round"/>
<path d="M276.25 135.347C265.25 141.43 241.5 157.597 234.5 173.597C233.25 176.68 231.5 186.597 234.5 201.597C235.917 209.013 237.6 226.547 233 237.347C226.333 253.263 205.9 278.447 177.5 251.847" stroke="white" stroke-width="4" stroke-linecap="round" stroke-linejoin="round"/>
<path d="M102.034 -0.404297C102.343 3.46565 103.566 11.8557 105.981 14.4564C101.569 10.4316 93.6744 5.81861 97.3896 19.5648C99.3245 27.3047 104.727 41.7629 110.857 37.6762M110.857 37.6762C111.554 36.5152 112.25 31.2676 109.464 19.5648M110.857 37.6762C114.758 48.3453 116.509 53.1264 116.897 54.1834C125.631 107.211 94.8955 111.193 78.4363 106.556C46.6855 93.1354 10.1066 99.6001 -4.21402 104.51M66.5707 300.907C63.7065 287.814 57.9783 254.999 57.9783 228.486C56.7508 212.256 47.0128 176.768 17.8806 164.657H-7.4873" stroke="white" stroke-width="4" stroke-linecap="round" stroke-linejoin="round"/>
<path d="M197.479 -0.404297C197.17 3.46565 195.947 11.8557 193.532 14.4564C197.944 10.4316 205.838 5.81861 202.123 19.5648C200.188 27.3047 194.786 41.7629 188.656 37.6762M188.656 37.6762C187.959 36.5152 187.262 31.2676 190.049 19.5648M188.656 37.6762C184.755 48.3453 183.003 53.1264 182.615 54.1834C173.882 107.211 204.617 111.193 221.076 106.556C252.827 93.1354 289.406 99.6001 303.727 104.51M232.942 300.907C235.806 287.814 241.534 254.999 241.534 228.486C242.762 212.256 252.5 176.768 281.632 164.657H307" stroke="white" stroke-width="4" stroke-linecap="round" stroke-linejoin="round"/>
<path d="M99.5 119.847C108.75 120.097 130.15 123.847 141.75 136.847" stroke="white" stroke-width="4" stroke-linecap="round" stroke-linejoin="round"/>
<path d="M200.75 119.847C191.5 120.097 170.1 123.847 158.5 136.847" stroke="white" stroke-width="4" stroke-linecap="round" stroke-linejoin="round"/>
<path d="M134.5 36.0971C139.333 32.5138 152.1 27.4971 164.5 36.0971M141.5 42.8472H158.25" stroke="white" stroke-width="4" stroke-linecap="round" stroke-linejoin="round"/>
<path d="M129.351 -7.90137C132.38 -7.90137 135.048 -6.96017 136.917 -5.53125C138.784 -4.1036 139.77 -2.27277 139.77 -0.404297C139.769 1.46412 138.784 3.29505 136.917 4.72266C135.048 6.15152 132.38 7.09277 129.351 7.09277C126.321 7.09275 123.653 6.15155 121.784 4.72266C119.917 3.29505 118.932 1.46412 118.932 -0.404297C118.932 -2.27277 119.917 -4.1036 121.784 -5.53125C123.653 -6.96021 126.321 -7.90135 129.351 -7.90137Z" stroke="white" stroke-width="4" stroke-linejoin="round"/>
<path d="M171.351 -7.90137C174.38 -7.90137 177.048 -6.96017 178.917 -5.53125C180.784 -4.1036 181.77 -2.27277 181.77 -0.404297C181.769 1.46412 180.784 3.29505 178.917 4.72266C177.048 6.15152 174.38 7.09277 171.351 7.09277C168.321 7.09275 165.653 6.15155 163.784 4.72266C161.917 3.29505 160.932 1.46412 160.932 -0.404297C160.932 -2.27277 161.917 -4.1036 163.784 -5.53125C165.653 -6.96021 168.321 -7.90135 171.351 -7.90137Z" stroke="white" stroke-width="4" stroke-linejoin="round"/>
<path d="M114.5 47.7217C125.685 60.7054 155.399 78.8825 184.777 47.7217" stroke="white" stroke-width="4" stroke-linecap="round" stroke-linejoin="round"/>
</g>
<defs>
<clipPath id="clip0_5921_1408">
<rect width="300" height="300" fill="white"/>
</clipPath>
</defs>
</svg>
