<svg width="300" height="300" viewBox="0 0 300 300" fill="none" xmlns="http://www.w3.org/2000/svg">
<g clip-path="url(#clip0_5921_1692)">
<path d="M212.625 128.25C205.625 131.042 189.825 138.625 182.625 146.625" stroke="white" stroke-width="4" stroke-linecap="round" stroke-linejoin="round"/>
<path d="M-5 61.5C8 61.6667 38.5 63.1 56.5 67.5C78.1667 77.5 145.4 95 241 85C249.167 83.3333 274.9 81 312.5 85" stroke="white" stroke-width="4" stroke-linecap="round" stroke-linejoin="round"/>
<path d="M-4 237.5C-2.5 229.5 4.2 208.6 19 189C28.3333 191.333 57.4 194.6 99 189C111.167 186.333 142.7 179.9 171.5 175.5C199.333 175.833 265.1 175.4 305.5 171" stroke="white" stroke-width="4" stroke-linecap="round" stroke-linejoin="round"/>
<path d="M208.25 151C202.292 155.458 189 166.2 183.5 173.5" stroke="white" stroke-width="4" stroke-linecap="round" stroke-linejoin="round"/>
</g>
<defs>
<clipPath id="clip0_5921_1692">
<rect width="300" height="300" fill="white"/>
</clipPath>
</defs>
</svg>
