<svg width="300" height="300" viewBox="0 0 300 300" fill="none" xmlns="http://www.w3.org/2000/svg">
<g clip-path="url(#clip0_5921_1712)">
<path d="M17 45C30 38.5833 57.7 23.95 64.5 16.75M107.5 29H139.75C144.667 27.9167 154.3 23.95 153.5 16.75M183 12C187.583 17.6667 200.05 26.55 213.25 16.75M269.25 21.25L258.5 23C251.904 39.3258 238.371 77.2584 237.008 98.3831C234.595 112.012 232.153 143.443 241.693 160.139C256.032 190.378 284.283 260.822 282.58 300.686" stroke="white" stroke-width="4" stroke-linecap="round" stroke-linejoin="round"/>
<path d="M44.0749 300.686C46.3464 274.422 50.8041 209.288 50.4634 158.861C48.1919 131.604 41.8602 68.8258 34.7051 35.7759" stroke="white" stroke-width="4" stroke-linecap="round" stroke-linejoin="round"/>
</g>
<defs>
<clipPath id="clip0_5921_1712">
<rect width="300" height="300" fill="white"/>
</clipPath>
</defs>
</svg>
