<svg width="300" height="300" viewBox="0 0 300 300" fill="none" xmlns="http://www.w3.org/2000/svg">
<g clip-path="url(#clip0_5921_1716)">
<path d="M282.653 45C269.653 38.5833 241.953 23.95 235.153 16.75M192.153 29H159.903C154.987 27.9167 145.353 23.95 146.153 16.75M116.653 12C112.07 17.6667 99.6033 26.55 86.4033 16.75M30.4033 21.25L41.1533 23C47.7494 39.3258 61.2822 77.2584 62.6451 98.3831C65.0585 112.012 67.5004 143.443 57.9602 160.139C43.6215 190.378 15.3701 260.822 17.0737 300.686" stroke="white" stroke-width="4" stroke-linecap="round" stroke-linejoin="round"/>
<path d="M255.578 300.686C253.307 274.422 248.849 209.288 249.19 158.861C251.461 131.604 257.793 68.8258 264.948 35.7759" stroke="white" stroke-width="4" stroke-linecap="round" stroke-linejoin="round"/>
</g>
<defs>
<clipPath id="clip0_5921_1716">
<rect width="300" height="300" fill="white"/>
</clipPath>
</defs>
</svg>
