<svg width="300" height="300" viewBox="0 0 300 300" fill="none" xmlns="http://www.w3.org/2000/svg">
<path d="M147.487 58.6387C153.119 52.2561 166.121 43.139 179.154 48.9902M78.1709 264.897C83.235 238.058 111.793 237.203 139.544 239.69C200.698 238.595 193.885 204.346 182.834 187.359C206.287 181.002 198.451 170.28 191.602 165.714C210.89 158.261 205.849 147.448 200.917 142.973C196.533 137.055 210.891 128.225 218.618 124.55C238.571 110.111 229.776 99.0626 222.885 95.3433C206.345 86.6796 191.941 64.39 186.806 54.3281C184.292 51.8773 181.723 50.1432 179.154 48.9902M179.154 48.9902C180.996 53.6923 181.688 63.8096 169.728 66.6626" stroke="white" stroke-width="4" stroke-linecap="round" stroke-linejoin="round"/>
</svg>
