<svg width="300" height="300" viewBox="0 0 300 300" fill="none" xmlns="http://www.w3.org/2000/svg">
<path d="M70.1045 61.5202C80.9391 53.152 106.414 41.7007 121.635 62.8415M100.188 56.8513V65.1033M95.237 60.9414H105.041" stroke="white" stroke-width="4" stroke-linecap="round" stroke-linejoin="round"/>
<ellipse cx="99.7325" cy="60.6202" rx="11.4161" ry="9.81165" stroke="white" stroke-width="4" stroke-linejoin="round"/>
<path d="M229.635 61.5202C218.8 53.152 193.326 41.7007 178.104 62.8415M199.551 56.8513V65.1033M204.502 60.9414H194.698" stroke="white" stroke-width="4" stroke-linecap="round" stroke-linejoin="round"/>
<ellipse cx="11.4161" cy="9.81165" rx="11.4161" ry="9.81165" transform="matrix(-1 0 0 1 211.423 50.8086)" stroke="white" stroke-width="4" stroke-linejoin="round"/>
<path d="M76.1348 186.168C80.8294 194.44 87.0903 203.376 94.5993 211.574M223.429 186.168C216.927 196.573 210.42 205.242 203.954 212.379M94.5993 211.574V251.669M94.5993 211.574C120.532 239.888 161.35 259.406 203.954 212.379M203.954 212.379V251.669" stroke="white" stroke-width="4" stroke-linecap="round" stroke-linejoin="round"/>
</svg>
