<svg width="300" height="300" viewBox="0 0 300 300" fill="none" xmlns="http://www.w3.org/2000/svg">
<g clip-path="url(#clip0_5921_1452)">
<path d="M63.165 -1.05762C80.314 19.4161 114.862 67.3121 113.392 90.8307" stroke="white" stroke-width="4" stroke-linecap="round" stroke-linejoin="round"/>
<path d="M254.438 -1.05762C237.289 19.4161 202.741 67.3121 204.211 90.8307" stroke="white" stroke-width="4" stroke-linecap="round" stroke-linejoin="round"/>
<path d="M94.791 42.2588C118.505 33.5471 177.43 21.3507 223.418 42.2588" stroke="white" stroke-width="4" stroke-linecap="round" stroke-linejoin="round"/>
<path d="M154.21 175.531C144.68 168.787 132.208 135.588 158.559 56.748" stroke="white" stroke-width="4" stroke-linecap="round" stroke-linejoin="round"/>
<path d="M162.908 175.531C172.438 168.787 184.91 135.588 158.559 56.748" stroke="white" stroke-width="4" stroke-linecap="round" stroke-linejoin="round"/>
<path d="M158.472 90.1348V166.438" stroke="white" stroke-width="4" stroke-linecap="round" stroke-linejoin="round"/>
<path d="M152.896 227.372C155.176 225.298 161.112 222.395 166.62 227.372" stroke="white" stroke-width="4" stroke-linecap="round" stroke-linejoin="round"/>
<path d="M0.688477 258.839C27.6901 262.669 90.3263 269.434 124.858 265.846C137.594 263.914 151.134 258.783 159.228 243.503" stroke="white" stroke-width="4" stroke-linecap="round" stroke-linejoin="round"/>
<path d="M317.768 258.839C290.766 262.669 228.13 269.434 193.598 265.846C180.862 263.914 167.322 258.783 159.228 243.503" stroke="white" stroke-width="4" stroke-linecap="round" stroke-linejoin="round"/>
</g>
<defs>
<clipPath id="clip0_5921_1452">
<rect width="300" height="300" fill="white"/>
</clipPath>
</defs>
</svg>
