<svg width="300" height="300" viewBox="0 0 300 300" fill="none" xmlns="http://www.w3.org/2000/svg">
<g clip-path="url(#clip0_5921_1546)">
<path d="M90.7307 18.6195C86.7627 13.5658 82.8619 3.98473 99.0036 6.09023C113.969 8.04226 133.875 30.0837 147.911 34.8209C161.509 37.3065 185.195 33.812 171.158 -0.050293" stroke="white" stroke-width="4" stroke-linecap="round" stroke-linejoin="round"/>
<path d="M61.499 0.627441C64.6606 8.50289 76.1652 25.1472 96.8911 28.7207C115.652 31.6986 146.028 44.0191 121.129 93.2094C114.767 101.278 108.592 116.673 144.194 129.8C135.824 139.828 124.504 161.325 146.183 167.093C155.631 173.143 172.537 188.872 164.581 203.391C150.824 222.618 138.745 268.967 179.311 292.377C203.476 301.531 265.104 294.741 302.262 289.441" stroke="white" stroke-width="4" stroke-linecap="round" stroke-linejoin="round"/>
<path d="M117.587 108.636C123.433 108.375 135.78 108.139 138.398 109.291C153.1 116.708 183.474 133.295 187.348 140.311C178.23 147.945 157.166 163.948 145.858 166.88" stroke="white" stroke-width="4" stroke-linecap="round" stroke-linejoin="round"/>
<path d="M144.812 129.709C156.286 132.501 180.517 138.661 185.648 140.965" stroke="white" stroke-width="4" stroke-linecap="round" stroke-linejoin="round"/>
</g>
<defs>
<clipPath id="clip0_5921_1546">
<rect width="300" height="300" fill="white"/>
</clipPath>
</defs>
</svg>
