<svg width="300" height="300" viewBox="0 0 300 300" fill="none" xmlns="http://www.w3.org/2000/svg">
<g clip-path="url(#clip0_5921_1551)">
<path d="M206.532 18.6195C210.5 13.5658 214.401 3.98473 198.259 6.09023C183.294 8.04226 163.388 30.0837 149.352 34.8209C135.754 37.3065 112.068 33.812 126.104 -0.050293" stroke="white" stroke-width="4" stroke-linecap="round" stroke-linejoin="round"/>
<path d="M235.764 0.627441C232.602 8.50289 221.098 25.1472 200.372 28.7207C181.611 31.6986 151.235 44.0191 176.134 93.2094C182.496 101.278 188.671 116.673 153.068 129.8C161.439 139.828 172.759 161.325 151.08 167.093C141.632 173.143 124.726 188.872 132.682 203.391C146.439 222.618 158.517 268.967 117.952 292.377C93.7865 301.531 32.1586 294.741 -4.99976 289.441" stroke="white" stroke-width="4" stroke-linecap="round" stroke-linejoin="round"/>
<path d="M179.675 108.636C173.829 108.375 161.482 108.139 158.864 109.291C144.161 116.708 113.787 133.295 109.913 140.311C119.032 147.945 140.095 163.948 151.404 166.88" stroke="white" stroke-width="4" stroke-linecap="round" stroke-linejoin="round"/>
<path d="M152.451 129.709C140.977 132.501 116.746 138.661 111.615 140.965" stroke="white" stroke-width="4" stroke-linecap="round" stroke-linejoin="round"/>
</g>
<defs>
<clipPath id="clip0_5921_1551">
<rect width="300" height="300" fill="white"/>
</clipPath>
</defs>
</svg>
