<svg width="300" height="300" viewBox="0 0 300 300" fill="none" xmlns="http://www.w3.org/2000/svg">
<g clip-path="url(#clip0_5921_1519)">
<path d="M89.8711 29.903C97.6934 23.0985 116.147 11.6879 127.383 20.4814C135.41 28.709 154.691 40.0117 168.409 20.4689C168.795 19.9187 169.302 19.4367 169.92 19.1708C173.44 17.654 180.533 16.1016 186.922 19.6089C190.053 21.7509 197.943 26.4217 204.455 27.9689" stroke="white" stroke-width="4" stroke-linecap="round" stroke-linejoin="round"/>
<path d="M39.25 127.5C56.9167 117 101.95 99.1497 140.75 111.75" stroke="white" stroke-width="4" stroke-linecap="round" stroke-linejoin="round"/>
<path d="M255.75 127.5C238.175 117.054 193.516 99.3347 154.854 111.556C154.454 111.683 154.036 111.75 153.617 111.75H141.469" stroke="white" stroke-width="4" stroke-linecap="round" stroke-linejoin="round"/>
<path d="M113.5 171.75C91.6667 160.167 45.6375 135.162 39.4375 127.562" stroke="white" stroke-width="4" stroke-linecap="round" stroke-linejoin="round"/>
<path d="M255.75 127.562C249.63 135.064 204.709 159.52 182.55 171.292C181.973 171.599 181.346 171.75 180.692 171.75H113.438" stroke="white" stroke-width="4" stroke-linecap="round" stroke-linejoin="round"/>
<path d="M40.5 128.5C91.5936 132.199 205.863 137.378 254.191 128.5" stroke="white" stroke-width="4" stroke-linecap="round" stroke-linejoin="round"/>
<path d="M-1.5 237.5C25.3333 254.333 91.2 289 140 293C160.5 295.5 221.5 287.3 301.5 234.5" stroke="white" stroke-width="4" stroke-linecap="round" stroke-linejoin="round"/>
</g>
<defs>
<clipPath id="clip0_5921_1519">
<rect width="300" height="300" fill="white"/>
</clipPath>
</defs>
</svg>
