<svg width="300" height="300" viewBox="0 0 300 300" fill="none" xmlns="http://www.w3.org/2000/svg">
<g clip-path="url(#clip0_5921_1419)">
<path d="M89.8711 30.2497C97.6934 23.4452 116.147 12.0345 127.383 20.828C135.41 29.0557 154.691 40.3584 168.409 20.8155C168.795 20.2654 169.302 19.7834 169.92 19.5174C173.44 18.0007 180.533 16.4483 186.922 19.9556C190.053 22.0976 197.943 26.7684 204.455 28.3156" stroke="white" stroke-width="4" stroke-linecap="round" stroke-linejoin="round"/>
<path d="M39.25 127.847C56.9167 117.347 101.95 99.4969 140.75 112.097" stroke="white" stroke-width="4" stroke-linecap="round" stroke-linejoin="round"/>
<path d="M255.75 127.847C238.175 117.401 193.516 99.6819 154.854 111.903C154.454 112.03 154.036 112.097 153.617 112.097H141.469" stroke="white" stroke-width="4" stroke-linecap="round" stroke-linejoin="round"/>
<path d="M113.5 172.097C91.6667 160.513 45.6375 135.509 39.4375 127.909" stroke="white" stroke-width="4" stroke-linecap="round" stroke-linejoin="round"/>
<path d="M255.75 127.909C249.63 135.411 204.709 159.867 182.55 171.639C181.973 171.945 181.346 172.097 180.692 172.097H113.438" stroke="white" stroke-width="4" stroke-linecap="round" stroke-linejoin="round"/>
<path d="M40.5 128.847C91.5936 132.546 205.863 137.724 254.191 128.847" stroke="white" stroke-width="4" stroke-linecap="round" stroke-linejoin="round"/>
<path d="M-1.5 237.847C25.3333 254.68 91.2 289.347 140 293.347C160.5 295.847 221.5 287.647 301.5 234.847" stroke="white" stroke-width="4" stroke-linecap="round" stroke-linejoin="round"/>
</g>
<defs>
<clipPath id="clip0_5921_1419">
<rect width="300" height="300" fill="white"/>
</clipPath>
</defs>
</svg>
