<svg width="300" height="300" viewBox="0 0 300 300" fill="none" xmlns="http://www.w3.org/2000/svg">
<g clip-path="url(#clip0_5921_1656)">
<path d="M89.8711 34.0011C97.6934 27.1966 116.147 15.786 127.383 24.5795C135.41 32.8072 154.691 44.1098 168.409 24.567C168.795 24.0169 169.302 23.5349 169.92 23.2689C173.44 21.7521 180.533 20.1998 186.922 23.707C190.053 25.849 197.943 30.5198 204.455 32.0671" stroke="white" stroke-width="4" stroke-linecap="round" stroke-linejoin="round"/>
<path d="M54.625 224.5C62.4473 231.304 110.529 243.752 122.943 236.717C133.174 230.92 146.671 229.087 157.108 231.219C165.729 232.981 173.309 238.027 182.105 238.252C196.497 238.621 220.103 236.466 240.38 224.5" stroke="white" stroke-width="4" stroke-linecap="round" stroke-linejoin="round"/>
<path d="M-1.5 226.377C25.3333 243.21 91.2 277.877 140 281.877C160.5 284.377 221.5 276.177 301.5 223.377" stroke="white" stroke-width="4" stroke-linecap="round" stroke-linejoin="round"/>
<path d="M45.31 131.291C47.2589 108.64 62.1907 90.3359 74.85 80.5581C75.5299 80.0329 76.3664 79.7607 77.2255 79.7607H222.774C223.633 79.7607 224.469 80.0329 225.149 80.5581C237.809 90.3359 252.74 108.64 254.689 131.291M45.31 131.291C43.7198 149.774 50.7739 171.151 74.7605 193.153C75.4876 193.82 76.4483 194.189 77.435 194.189H222.564C223.551 194.189 224.512 193.82 225.239 193.153C249.225 171.151 256.279 149.774 254.689 131.291M45.31 131.291H254.689" stroke="white" stroke-width="4" stroke-linecap="round" stroke-linejoin="round"/>
</g>
<defs>
<clipPath id="clip0_5921_1656">
<rect width="300" height="300" fill="white"/>
</clipPath>
</defs>
</svg>
