<svg width="300" height="300" viewBox="0 0 300 300" fill="none" xmlns="http://www.w3.org/2000/svg">
<g clip-path="url(#clip0_5921_1648)">
<path d="M275.668 0.0610352C272.575 6.77177 260.425 20.5862 236.168 23.8327C234.659 24.0347 233.198 23.2983 232.32 22.0544C227.226 14.8387 217.3 4.94441 209.066 10.4999C208.844 10.6495 208.617 10.7875 208.373 10.8986C177.87 24.8254 119.926 41.9287 129.381 0.0610352" stroke="white" stroke-width="4" stroke-linecap="round" stroke-linejoin="round"/>
<path d="M247.3 21.2461C251.497 33.0611 259.308 61.3825 257.205 80.721C257.176 80.9857 257.123 81.2293 257.041 81.4825C246.923 112.604 228.131 186.311 232.982 235.259C236.429 270.047 224.324 295.864 82.0582 271.963M9.15527e-05 254.628C31.0685 262.3 58.2776 267.967 82.0582 271.963M82.0582 271.963L80.7591 303.142" stroke="white" stroke-width="4" stroke-linecap="round" stroke-linejoin="round"/>
<path d="M233.005 103.407C244.6 97.077 260.815 82.462 233.327 74.4598C233.121 74.3999 232.91 74.3556 232.697 74.3312C211.877 71.9452 159.375 73.3123 113.283 97.7057" stroke="white" stroke-width="4" stroke-linecap="round" stroke-linejoin="round"/>
<path d="M257.244 75.8668C262.481 60.2767 273.504 23.1405 275.696 -0.683105" stroke="white" stroke-width="4" stroke-linecap="round" stroke-linejoin="round"/>
<path d="M227.661 144.383C234.655 149.379 243.354 165.902 221.75 174.235C221.311 174.404 220.826 174.492 220.356 174.491C178.24 174.472 140.828 172.7 109.364 145.63" stroke="white" stroke-width="4" stroke-linecap="round" stroke-linejoin="round"/>
<path d="M222.316 97.656C220.621 104.484 217.914 117.92 216.82 130.89M216.572 147.57C169.097 158.1 125.904 143.205 109.299 133.731C108.354 133.129 107.467 132.534 106.636 131.946M216.572 147.57C219.149 146.999 221.739 146.352 224.338 145.626C226.15 145.119 227.321 143.39 227.275 141.509C227.015 130.974 228.592 112.823 229.774 101.694C230.01 99.47 228.415 97.4785 226.188 97.283C198.686 94.8685 144.83 92.6247 120.446 100.753C105.429 104.095 82.5222 114.894 106.636 131.946M216.572 147.57C216.161 142.544 216.325 136.765 216.82 130.89M216.82 130.89C185.728 130.647 120.161 130.518 106.636 131.946" stroke="white" stroke-width="4" stroke-linecap="round" stroke-linejoin="round"/>
</g>
<defs>
<clipPath id="clip0_5921_1648">
<rect width="300" height="300" fill="white"/>
</clipPath>
</defs>
</svg>
