<svg width="300" height="300" viewBox="0 0 300 300" fill="none" xmlns="http://www.w3.org/2000/svg">
<g clip-path="url(#clip0_5921_1641)">
<path d="M25.9951 0.0610352C29.0879 6.77177 41.2382 20.5862 65.4951 23.8327C67.0044 24.0347 68.4654 23.2983 69.3435 22.0544C74.4372 14.8387 84.3628 4.94441 92.5973 10.4999C92.819 10.6495 93.0464 10.7875 93.2897 10.8986C123.793 24.8254 181.737 41.9287 172.282 0.0610352" stroke="white" stroke-width="4" stroke-linecap="round" stroke-linejoin="round"/>
<path d="M54.3624 21.2461C50.1649 33.0611 42.3543 61.3825 44.4572 80.721C44.486 80.9857 44.539 81.2293 44.6214 81.4825C54.7395 112.604 73.5311 186.311 68.6804 235.259C65.2329 270.047 77.3377 295.864 219.604 271.963M301.662 254.628C270.594 262.3 243.385 267.967 219.604 271.963M219.604 271.963L220.903 303.142" stroke="white" stroke-width="4" stroke-linecap="round" stroke-linejoin="round"/>
<path d="M68.6568 103.407C57.0622 97.077 40.8475 82.462 68.3352 74.4598C68.541 74.3999 68.7517 74.3556 68.9647 74.3312C89.7854 71.9452 142.287 73.3123 188.379 97.7057" stroke="white" stroke-width="4" stroke-linecap="round" stroke-linejoin="round"/>
<path d="M44.4182 75.8668C39.1809 60.2767 28.1582 23.1405 25.9658 -0.683105" stroke="white" stroke-width="4" stroke-linecap="round" stroke-linejoin="round"/>
<path d="M74.0012 144.383C67.0067 149.379 58.3078 165.902 79.912 174.235C80.3508 174.404 80.8357 174.492 81.306 174.491C123.423 174.472 160.834 172.7 192.298 145.63" stroke="white" stroke-width="4" stroke-linecap="round" stroke-linejoin="round"/>
<path d="M79.3457 97.656C81.0415 104.484 83.7483 117.92 84.8418 130.89M85.0905 147.57C132.565 158.1 175.758 143.205 192.363 133.731C193.308 133.129 194.195 132.534 195.026 131.946M85.0905 147.57C82.513 146.999 79.9228 146.352 77.3237 145.626C75.5117 145.119 74.3411 143.39 74.3875 141.509C74.6475 130.974 73.07 112.823 71.8882 101.694C71.652 99.47 73.2466 97.4785 75.4744 97.283C102.976 94.8685 156.832 92.6247 181.216 100.753C196.233 104.095 219.14 114.894 195.026 131.946M85.0905 147.57C85.5013 142.544 85.3371 136.765 84.8418 130.89M84.8418 130.89C115.934 130.647 181.501 130.518 195.026 131.946" stroke="white" stroke-width="4" stroke-linecap="round" stroke-linejoin="round"/>
</g>
<defs>
<clipPath id="clip0_5921_1641">
<rect width="300" height="300" fill="white"/>
</clipPath>
</defs>
</svg>
