<svg width="300" height="300" viewBox="0 0 300 300" fill="none" xmlns="http://www.w3.org/2000/svg">
<g clip-path="url(#clip0_5921_1853)">
<path d="M26.8684 158.627C37.656 160.53 62.2551 175.294 44.0017 205.901C30.0413 225.89 9.35454 272.911 38.2905 301.086" stroke="white" stroke-width="4" stroke-linecap="round" stroke-linejoin="round"/>
<path d="M272.859 158.627C262.072 160.53 237.472 175.294 255.726 205.901C269.686 225.89 290.373 272.911 261.437 301.086" stroke="white" stroke-width="4" stroke-linecap="round" stroke-linejoin="round"/>
<path d="M135.88 274.706C136.432 278.842 135.77 290.037 128.711 301.728" stroke="white" stroke-width="4" stroke-linecap="round" stroke-linejoin="round"/>
<path d="M163.847 274.706C163.296 278.842 163.958 290.037 171.017 301.728" stroke="white" stroke-width="4" stroke-linecap="round" stroke-linejoin="round"/>
<path d="M71.0332 103.357C83.9877 104.184 113.149 106.664 126.159 109.972" stroke="white" stroke-width="4" stroke-linecap="round" stroke-linejoin="round"/>
<path d="M229.293 103.357C216.338 104.184 187.177 106.664 174.167 109.972" stroke="white" stroke-width="4" stroke-linecap="round" stroke-linejoin="round"/>
<path d="M92.3419 0.181641C107.868 25.2802 124.551 79.1385 67.0762 93.7837C50.3651 96.9079 13.5876 106.76 0.166992 121.175" stroke="white" stroke-width="4" stroke-linecap="round" stroke-linejoin="round"/>
<path d="M207.983 0.181641C192.457 25.2802 175.774 79.1385 233.249 93.7837C249.96 96.9079 286.738 106.76 300.158 121.175" stroke="white" stroke-width="4" stroke-linecap="round" stroke-linejoin="round"/>
<path d="M98.542 10.9961C115.499 26.6695 159.944 48.6123 202.067 10.9961" stroke="white" stroke-width="4" stroke-linecap="round" stroke-linejoin="round"/>
</g>
<defs>
<clipPath id="clip0_5921_1853">
<rect width="300" height="300" fill="white"/>
</clipPath>
</defs>
</svg>
