<svg width="300" height="300" viewBox="0 0 300 300" fill="none" xmlns="http://www.w3.org/2000/svg">
<path d="M161.572 58.6387C155.939 52.2561 142.937 43.139 129.904 48.9902M230.888 264.897C225.824 238.058 197.265 237.203 169.515 239.69C108.361 238.595 115.174 204.346 126.225 187.359C102.771 181.002 110.607 170.28 117.457 165.714C98.1683 158.261 103.21 147.448 108.141 142.973C112.525 137.055 98.1671 128.225 90.4401 124.55C70.4873 110.111 79.2823 99.0626 86.1739 95.3433C102.714 86.6796 117.118 64.39 122.252 54.3281C124.767 51.8773 127.336 50.1432 129.904 48.9902M129.904 48.9902C128.063 53.6923 127.37 63.8096 139.331 66.6626" stroke="white" stroke-width="4" stroke-linecap="round" stroke-linejoin="round"/>
</svg>
