<svg width="300" height="300" viewBox="0 0 300 300" fill="none" xmlns="http://www.w3.org/2000/svg">
<g clip-path="url(#clip0_5921_1539)">
<path d="M21.7441 68.5027C23.0392 62.9774 28.9313 50.9427 46.7498 47.0061C59.1814 45.7111 90.2214 43.8981 110.319 47.0062M45.008 95.9263C56.7376 86.7008 85.139 73.2711 104.908 93.3564C99.9657 103.354 81.0666 117.865 45.008 95.9263Z" stroke="white" stroke-width="4" stroke-linecap="round" stroke-linejoin="round"/>
<path d="M290.318 68.5027C289.023 62.9774 283.131 50.9427 265.313 47.0061C252.881 45.7111 221.841 43.8981 201.743 47.0062M267.054 95.9263C255.325 86.7008 226.924 73.2711 207.155 93.3564C212.097 103.354 230.996 117.865 267.054 95.9263Z" stroke="white" stroke-width="4" stroke-linecap="round" stroke-linejoin="round"/>
<path d="M123.663 162.447C115.452 168.515 102.407 182.367 117.666 188.657C123.663 189.822 128.731 180.795 143.437 187.201C148.732 189.508 157.501 200.246 170.081 187.201C173.478 183.949 177.797 181.668 189.008 187.201C200.219 191.569 211.721 182.596 189.008 162.447" stroke="white" stroke-width="4" stroke-linecap="round" stroke-linejoin="round"/>
<path d="M93.9004 242.526C103.337 239.021 126.676 231.137 144.535 227.643C149.335 231.255 160.81 236.313 168.316 227.643C185.14 231.849 219.857 240.714 224.128 242.526C212.696 250.992 187.276 268.313 177.052 269.866H137.741C127.441 265.713 104.254 254.433 93.9004 242.526ZM93.9004 242.526H224.937" stroke="white" stroke-width="4" stroke-linecap="round" stroke-linejoin="round"/>
<path d="M-2.70801 167.516C-2.58778 202.162 13.4029 281.012 65.3719 309.595" stroke="white" stroke-width="4" stroke-linecap="round" stroke-linejoin="round"/>
<path d="M312 169.928C311.88 204.574 298.647 281.011 246.678 309.594" stroke="white" stroke-width="4" stroke-linecap="round" stroke-linejoin="round"/>
</g>
<defs>
<clipPath id="clip0_5921_1539">
<rect width="300" height="300" fill="white"/>
</clipPath>
</defs>
</svg>
