<svg width="300" height="300" viewBox="0 0 300 300" fill="none" xmlns="http://www.w3.org/2000/svg">
<g clip-path="url(#clip0_5921_1908)">
<path d="M55.3406 303.327C55.0168 293.936 53.5305 270.428 36.9595 232.28C20.9802 178.618 27.3196 128.849 30.5243 106.995C43.4314 68.5028 66.0632 22.9371 150.51 19.1075L152.038 19.1074C240.451 21.1372 259.116 68.5027 272.023 106.995C275.228 128.849 281.567 178.618 265.588 232.28C249.017 270.428 248.914 293.936 248.59 303.327" stroke="white" stroke-width="4" stroke-linecap="round" stroke-linejoin="round"/>
<path d="M107.241 266.473C121.665 270.711 159.332 276.645 194.606 266.473" stroke="white" stroke-width="4" stroke-linecap="round" stroke-linejoin="round"/>
<path d="M27.5031 177.697C23.7878 173.561 15.7682 169.747 13.4127 187.581C10.5385 205.528 10.216 244.701 31.9196 257.824C34.0227 259.016 40.0374 261.315 47.272 260.978" stroke="white" stroke-width="4" stroke-linecap="round" stroke-linejoin="round"/>
<path d="M275.794 177.696C279.509 173.56 287.529 169.746 289.884 187.58C292.758 205.527 293.081 244.7 271.377 257.823C269.274 259.015 263.259 261.314 256.025 260.977" stroke="white" stroke-width="4" stroke-linecap="round" stroke-linejoin="round"/>
<path d="M30.7078 206.765C23.7992 208.848 14.1271 218.509 30.7078 240.485C33.1203 243.775 39.2284 251.079 44.3605 253.974" stroke="white" stroke-width="4" stroke-linecap="round" stroke-linejoin="round"/>
<path d="M272.589 206.765C279.498 208.848 289.17 218.509 272.589 240.485C270.177 243.775 264.068 251.079 258.936 253.974" stroke="white" stroke-width="4" stroke-linecap="round" stroke-linejoin="round"/>
</g>
<defs>
<clipPath id="clip0_5921_1908">
<rect width="300" height="300" fill="white"/>
</clipPath>
</defs>
</svg>
