<svg width="300" height="300" viewBox="0 0 300 300" fill="none" xmlns="http://www.w3.org/2000/svg">
<g clip-path="url(#clip0_5921_1881)">
<path d="M181.201 146.954C183.661 141.695 193.315 132.754 212.248 139.065C216.659 141.271 224.158 153.01 218.865 182.327C212.078 198.614 195.045 225.335 181.201 201.922" stroke="white" stroke-width="4" stroke-linecap="round" stroke-linejoin="round"/>
<path d="M211.479 151.758C208.779 147.311 201.091 140.576 191.942 149.217C190.089 153.241 189.941 162.273 204.172 166.212" stroke="white" stroke-width="4" stroke-linecap="round" stroke-linejoin="round"/>
<path d="M203.377 175.743C200.889 175.213 195.245 172.916 192.577 167.96C190.883 169.601 187.748 174.44 188.765 180.667C183.417 184.055 175.645 190.927 187.335 191.309" stroke="white" stroke-width="4" stroke-linecap="round" stroke-linejoin="round"/>
<path d="M51.1348 139.869C52.9159 136.018 61.0419 130.626 79.2965 139.869M58.5002 143.046C60.7259 145.004 66.6349 148.851 75.0272 151.385M81.8961 153.011C79.4588 152.59 77.1626 152.03 75.0272 151.385M66.7002 148.667C65.3445 151.717 63.2853 157.903 68.1615 159.341C71.0606 160.195 74.3679 158.884 75.0272 151.385" stroke="white" stroke-width="4" stroke-linecap="round" stroke-linejoin="round"/>
<path d="M48.1325 152.673C44.7181 135.19 42.1778 93.0935 59.332 64.5697C70.7184 47.615 105.908 13.0074 155.575 10.2148C198.583 10.2149 217.952 12.0562 245.087 35.6472C258.551 47.3528 281.983 87.7083 285.978 118.676C286.227 125.242 286.177 140.019 283.983 146.601C278.498 160.232 265.732 190.584 258.551 202.951C250.655 218.41 240.748 259.351 264.286 299.444" stroke="white" stroke-width="4" stroke-linecap="round" stroke-linejoin="round"/>
<path d="M117.926 299.942C118.092 298.945 117.428 296.103 113.438 292.712H67.3112C60.1636 290.966 48.5113 281.491 59.0832 257.555C54.3243 255.572 45.5045 249.328 48.2957 240.219C45.7248 239.607 41.0973 235.372 43.154 223.325C42.1134 220.816 37.4246 215.503 26.9943 214.328C20.8732 212.614 12.0833 204.742 25.8925 186.966C31.7075 182.375 44.3292 169.19 48.2957 153.178" stroke="white" stroke-width="4" stroke-linecap="round" stroke-linejoin="round"/>
<path d="M43.8743 208.226C37.7769 206.721 25.5371 205.675 25.3564 213.534" stroke="white" stroke-width="4" stroke-linecap="round" stroke-linejoin="round"/>
</g>
<defs>
<clipPath id="clip0_5921_1881">
<rect width="300" height="300" fill="white"/>
</clipPath>
</defs>
</svg>
