<svg width="300" height="300" viewBox="0 0 300 300" fill="none" xmlns="http://www.w3.org/2000/svg">
<g clip-path="url(#clip0_5921_1938)">
<path d="M161.715 -0.742188C161.715 3.05946 161.715 13.6152 161.715 17.0246C188.07 42.6482 237.841 110.673 226.087 177.784C224.811 180.847 223.024 190.173 226.087 202.972C229.405 225.324 235.293 276.018 232.298 299.981M177.869 45.1068C158.125 31.0635 115.395 6.68593 102.432 21.5213M171.208 111.902C160.405 112.202 135.164 110.03 120.616 98.9392" stroke="white" stroke-width="4" stroke-linecap="round" stroke-linejoin="round"/>
<path d="M90.1435 0.918945C69.7714 18.895 41.2504 86.594 90.1435 213.582C97.5561 227.88 108.311 266.718 93.8491 300.901" stroke="white" stroke-width="4" stroke-linecap="round" stroke-linejoin="round"/>
</g>
<defs>
<clipPath id="clip0_5921_1938">
<rect width="300" height="300" fill="white"/>
</clipPath>
</defs>
</svg>
