<svg width="300" height="300" viewBox="0 0 300 300" fill="none" xmlns="http://www.w3.org/2000/svg">
<g clip-path="url(#clip0_5921_1935)">
<path d="M134.554 -0.742188C134.554 3.05946 134.554 13.6152 134.554 17.0246C108.2 42.6482 58.4288 110.673 70.1826 177.784C71.4588 180.847 73.2455 190.173 70.1826 202.972C66.8642 225.324 60.9761 276.018 63.9714 299.981M118.4 45.1068C138.145 31.0635 180.874 6.68593 193.837 21.5213M125.062 111.902C135.864 112.202 161.106 110.03 175.653 98.9392" stroke="white" stroke-width="4" stroke-linecap="round" stroke-linejoin="round"/>
<path d="M206.125 0.918945C226.497 18.895 255.018 86.594 206.125 213.582C198.713 227.88 187.958 266.718 202.419 300.901" stroke="white" stroke-width="4" stroke-linecap="round" stroke-linejoin="round"/>
</g>
<defs>
<clipPath id="clip0_5921_1935">
<rect width="300" height="300" fill="white"/>
</clipPath>
</defs>
</svg>
