<svg width="300" height="300" viewBox="0 0 300 300" fill="none" xmlns="http://www.w3.org/2000/svg">
<g clip-path="url(#clip0_5921_1915)">
<path d="M123.428 146.954C120.968 141.695 111.314 132.754 92.3808 139.065C87.9697 141.271 80.471 153.01 85.7642 182.327C92.5504 198.614 109.584 225.335 123.428 201.922" stroke="white" stroke-width="4" stroke-linecap="round" stroke-linejoin="round"/>
<path d="M93.1501 151.758C95.8503 147.311 103.538 140.576 112.687 149.217C114.54 153.241 114.688 162.273 100.457 166.212" stroke="white" stroke-width="4" stroke-linecap="round" stroke-linejoin="round"/>
<path d="M101.251 175.743C103.74 175.213 109.384 172.916 112.052 167.96C113.746 169.601 116.881 174.44 115.864 180.667C121.212 184.055 128.984 190.927 117.294 191.309" stroke="white" stroke-width="4" stroke-linecap="round" stroke-linejoin="round"/>
<path d="M253.494 139.869C251.713 136.018 243.587 130.626 225.332 139.869M246.129 143.046C243.903 145.004 237.994 148.851 229.602 151.385M222.733 153.011C225.17 152.59 227.466 152.03 229.602 151.385M237.929 148.667C239.284 151.717 241.344 157.903 236.467 159.341C233.568 160.195 230.261 158.884 229.602 151.385" stroke="white" stroke-width="4" stroke-linecap="round" stroke-linejoin="round"/>
<path d="M256.496 152.673C259.911 135.19 262.451 93.0935 245.297 64.5697C233.911 47.615 198.721 13.0074 149.053 10.2148C106.046 10.2149 86.677 12.0562 59.5421 35.6472C46.078 47.3528 22.6461 87.7083 18.6512 118.676C18.4018 125.242 18.4517 140.019 20.6458 146.601C26.1312 160.232 38.8972 190.584 46.078 202.951C53.9736 218.41 63.8806 259.351 40.3433 299.444" stroke="white" stroke-width="4" stroke-linecap="round" stroke-linejoin="round"/>
<path d="M186.703 299.942C186.536 298.945 187.201 296.103 191.191 292.712H237.318C244.465 290.966 256.118 281.491 245.546 257.555C250.305 255.572 259.124 249.328 256.333 240.219C258.904 239.607 263.532 235.372 261.475 223.325C262.516 220.816 267.204 215.503 277.635 214.328C283.756 212.614 292.546 204.742 278.736 186.966C272.921 182.375 260.3 169.19 256.333 153.178" stroke="white" stroke-width="4" stroke-linecap="round" stroke-linejoin="round"/>
<path d="M260.755 208.226C266.852 206.721 279.092 205.675 279.272 213.534" stroke="white" stroke-width="4" stroke-linecap="round" stroke-linejoin="round"/>
</g>
<defs>
<clipPath id="clip0_5921_1915">
<rect width="300" height="300" fill="white"/>
</clipPath>
</defs>
</svg>
