<svg width="300" height="300" viewBox="0 0 300 300" fill="none" xmlns="http://www.w3.org/2000/svg">
<g clip-path="url(#clip0_5921_1578)">
<path d="M239.105 118.927H230.361C223.646 146.043 211.811 205.066 218.197 224.225C226.18 241.458 241.538 280.866 239.105 300.634M54.0479 140.861C56.873 139.592 61.1901 137.553 65.839 135.185M84.4528 124.26C79.8422 127.718 72.5001 131.79 65.839 135.185M65.839 135.185C70.2777 174.183 78.2397 261.87 74.5785 300.634" stroke="white" stroke-width="4" stroke-linecap="round" stroke-linejoin="round"/>
<path d="M36.4268 40.0966C41.6308 34.9575 55.9028 23.9378 71.3588 20.9716C78.9697 18.6948 95.7527 11.2531 101.998 -0.299805" stroke="white" stroke-width="4" stroke-linecap="round" stroke-linejoin="round"/>
<path d="M196.427 -0.299683C201.631 4.8394 215.903 15.8591 231.359 18.8253C238.97 21.102 255.753 28.5437 261.998 40.0967" stroke="white" stroke-width="4" stroke-linecap="round" stroke-linejoin="round"/>
</g>
<defs>
<clipPath id="clip0_5921_1578">
<rect width="300" height="300" fill="white"/>
</clipPath>
</defs>
</svg>
