<svg width="300" height="300" viewBox="0 0 300 300" fill="none" xmlns="http://www.w3.org/2000/svg">
<g clip-path="url(#clip0_5921_1557)">
<path d="M249.005 79.668C260.291 87.5846 279.83 118.982 267.702 181.237C265.175 205.998 263.963 264.514 279.324 300.493M77.7017 131.716C80.0599 131.716 85.3826 132.929 87.8081 137.78C99.262 169.278 119.239 237.934 107.516 260.572L85.2815 317.673" stroke="white" stroke-width="4" stroke-linecap="round" stroke-linejoin="round"/>
<path d="M201.467 -0.574219C203.11 5.01312 209.693 15.9164 223.692 21.1053M275.402 46.2906C270.046 33.7157 244.256 25.7206 232.031 23.2949C228.999 22.7955 226.224 22.0439 223.692 21.1053M223.692 21.1053C216.176 20.8621 200.745 22.1562 199.146 29.278M188.063 30.5498C186.973 26.7345 181.959 19.104 170.622 19.104C151.485 19.7701 111.285 19.758 103.582 14.3803" stroke="white" stroke-width="4" stroke-linecap="round" stroke-linejoin="round"/>
<path d="M29.8773 54.2682C33.8845 44.9338 48.6593 24.2284 75.7009 16.082C82.6782 14.0548 97.4247 7.87893 100.593 -0.606934" stroke="white" stroke-width="4" stroke-linecap="round" stroke-linejoin="round"/>
</g>
<defs>
<clipPath id="clip0_5921_1557">
<rect width="300" height="300" fill="white"/>
</clipPath>
</defs>
</svg>
