<svg width="300" height="300" viewBox="0 0 300 300" fill="none" xmlns="http://www.w3.org/2000/svg">
<g clip-path="url(#clip0_5921_1448)">
<path d="M60.1971 79.668C48.9116 87.5846 29.3726 118.982 41.5003 181.237C44.0269 205.998 45.2396 264.514 29.8779 300.493M231.5 131.716C229.142 131.716 223.82 132.929 221.394 137.78C209.94 169.278 189.963 237.934 201.687 260.572L223.921 317.673" stroke="white" stroke-width="4" stroke-linecap="round" stroke-linejoin="round"/>
<path d="M107.736 -0.574219C106.092 5.01312 99.5088 15.9164 85.5103 21.1053M33.7998 46.2906C39.1558 33.7157 64.946 25.7206 77.1716 23.2949C80.2035 22.7955 82.9782 22.0439 85.5103 21.1053M85.5103 21.1053C93.0262 20.8621 108.458 22.1562 110.056 29.278M121.139 30.5498C122.229 26.7345 127.243 19.104 138.58 19.104C157.717 19.7701 197.917 19.758 205.62 14.3803" stroke="white" stroke-width="4" stroke-linecap="round" stroke-linejoin="round"/>
<path d="M279.325 54.2682C275.318 44.9338 260.543 24.2284 233.501 16.082C226.524 14.0548 211.777 7.87893 208.609 -0.606934" stroke="white" stroke-width="4" stroke-linecap="round" stroke-linejoin="round"/>
</g>
<defs>
<clipPath id="clip0_5921_1448">
<rect width="300" height="300" fill="white"/>
</clipPath>
</defs>
</svg>
