<svg width="300" height="300" viewBox="0 0 300 300" fill="none" xmlns="http://www.w3.org/2000/svg">
<g clip-path="url(#clip0_5921_1582)">
<path d="M59.32 118.927H68.0633C74.7791 146.043 86.6141 205.066 80.2278 224.225C72.2448 241.458 56.8871 280.866 59.32 300.634M244.377 140.861C241.552 139.592 237.235 137.553 232.586 135.185M213.972 124.26C218.583 127.718 225.925 131.79 232.586 135.185M232.586 135.185C228.147 174.183 220.185 261.87 223.846 300.634" stroke="white" stroke-width="4" stroke-linecap="round" stroke-linejoin="round"/>
<path d="M261.998 40.0966C256.794 34.9575 242.522 23.9378 227.066 20.9716C219.455 18.6948 202.672 11.2531 196.427 -0.299805" stroke="white" stroke-width="4" stroke-linecap="round" stroke-linejoin="round"/>
<path d="M101.998 -0.299683C96.794 4.8394 82.522 15.8591 67.066 18.8253C59.4551 21.102 42.6721 28.5437 36.4273 40.0967" stroke="white" stroke-width="4" stroke-linecap="round" stroke-linejoin="round"/>
</g>
<defs>
<clipPath id="clip0_5921_1582">
<rect width="300" height="300" fill="white"/>
</clipPath>
</defs>
</svg>
