<svg width="300" height="300" viewBox="0 0 300 300" fill="none" xmlns="http://www.w3.org/2000/svg">
<g clip-path="url(#clip0_5921_1427)">
<path d="M0.0854506 131.186C7.35422 131.681 25.2159 131.228 39.1406 125.538C39.4862 125.397 39.7974 125.212 40.0882 124.978C53.9499 113.823 81.5976 92.0172 88.0819 88.5583C88.4837 88.344 88.9187 88.2448 89.3732 88.2163C99.0977 87.608 116.959 86.8365 122.776 87.7997C123.838 87.9756 124.504 88.8475 124.82 89.8764C126.945 96.7866 133.516 109.592 146.582 116.826C147.113 117.12 147.711 117.271 148.318 117.304C157.747 117.818 171.547 122.089 163.699 135.381C162.323 137.711 163.093 140.877 165.325 142.407C171.468 146.617 176.294 154.142 166.833 163.809C165.096 165.584 164.998 168.492 166.594 170.394C172.184 177.054 175.618 186.86 160.591 191.451C158.278 192.158 156.886 194.605 156.949 197.023C157.118 203.516 152.787 210.825 134.717 207.671C134.133 207.569 133.531 207.582 132.956 207.729C107.778 214.134 60.8383 218.191 40.1314 194.238M31.42 177.06C33.1174 183.952 36.1361 189.616 40.1314 194.238M40.1314 194.238C31.5066 195.335 11.3537 198.07 -0.259766 200.239" stroke="white" stroke-width="4" stroke-linecap="round" stroke-linejoin="round"/>
<path d="M40.1723 125.396C39.1187 129.036 37.8734 138.356 41.3218 146.517M50.5669 157.41C59.6093 160.066 81.9329 161.919 98.8874 148.085M103.296 120.957C106.347 115.193 113.502 105.596 117.707 113.328C121.833 120.505 133.61 131.435 147.717 117.736" stroke="white" stroke-width="4" stroke-linecap="round" stroke-linejoin="round"/>
<path d="M135.804 124.442L108.802 141.415C108.548 141.575 108.313 141.76 108.106 141.976C104.364 145.863 100.394 152.687 113.169 154.129C113.438 154.159 113.721 154.16 113.99 154.131C133.697 152.052 151.219 145.665 162.875 137.117" stroke="white" stroke-width="4" stroke-linecap="round" stroke-linejoin="round"/>
<path d="M112.02 154.174C108.577 152.14 95.9024 168.1 112.02 170.135C128.137 172.169 157.786 168.565 166.031 164.829" stroke="white" stroke-width="4" stroke-linecap="round" stroke-linejoin="round"/>
<path d="M108.272 169.668C103.573 174.409 102.837 178.828 110.907 180.931C130.604 186.065 150.973 192.226 157.395 193.346" stroke="white" stroke-width="4" stroke-linecap="round" stroke-linejoin="round"/>
<path d="M110.712 180.748C106.982 183.492 102.272 189.987 113.27 194.015C122.461 197.851 113.989 194.734 146.757 208.161" stroke="white" stroke-width="4" stroke-linecap="round" stroke-linejoin="round"/>
</g>
<defs>
<clipPath id="clip0_5921_1427">
<rect width="300" height="300" fill="white"/>
</clipPath>
</defs>
</svg>
