<svg width="300" height="300" viewBox="0 0 300 300" fill="none" xmlns="http://www.w3.org/2000/svg">
<g clip-path="url(#clip0_5921_1633)">
<path d="M299.655 131.186C292.386 131.681 274.524 131.228 260.6 125.538C260.254 125.397 259.943 125.212 259.652 124.978C245.79 113.823 218.143 92.0172 211.658 88.5583C211.257 88.344 210.822 88.2448 210.367 88.2163C200.643 87.608 182.781 86.8365 176.965 87.7997C175.903 87.9756 175.236 88.8475 174.92 89.8764C172.795 96.7866 166.224 109.592 153.159 116.826C152.627 117.12 152.029 117.271 151.422 117.304C141.994 117.818 128.193 122.089 136.041 135.381C137.417 137.711 136.647 140.877 134.415 142.407C128.273 146.617 123.446 154.142 132.908 163.809C134.644 165.584 134.742 168.492 133.146 170.394C127.556 177.054 124.122 186.86 139.149 191.451C141.462 192.158 142.854 194.605 142.791 197.023C142.623 203.516 146.953 210.825 165.023 207.671C165.607 207.569 166.209 207.582 166.784 207.729C191.962 214.134 238.902 218.191 259.609 194.238M268.32 177.06C266.623 183.952 263.604 189.616 259.609 194.238M259.609 194.238C268.234 195.335 288.386 198.07 300 200.239" stroke="white" stroke-width="4" stroke-linecap="round" stroke-linejoin="round"/>
<path d="M259.568 125.396C260.622 129.036 261.867 138.356 258.418 146.517M249.173 157.41C240.131 160.066 217.807 161.919 200.853 148.085M196.445 120.957C193.393 115.193 186.238 105.596 182.033 113.328C177.908 120.505 166.13 131.435 152.024 117.736" stroke="white" stroke-width="4" stroke-linecap="round" stroke-linejoin="round"/>
<path d="M163.936 124.442L190.938 141.415C191.192 141.575 191.427 141.76 191.635 141.976C195.376 145.863 199.347 152.687 186.571 154.129C186.303 154.159 186.02 154.16 185.751 154.131C166.043 152.052 148.521 145.665 136.865 137.117" stroke="white" stroke-width="4" stroke-linecap="round" stroke-linejoin="round"/>
<path d="M187.721 154.174C191.163 152.14 203.838 168.1 187.721 170.135C171.603 172.169 141.954 168.565 133.71 164.829" stroke="white" stroke-width="4" stroke-linecap="round" stroke-linejoin="round"/>
<path d="M191.468 169.668C196.168 174.409 196.903 178.828 188.833 180.931C169.136 186.065 148.768 192.226 142.345 193.346" stroke="white" stroke-width="4" stroke-linecap="round" stroke-linejoin="round"/>
<path d="M189.028 180.748C192.758 183.492 197.468 189.987 186.471 194.015C177.28 197.851 185.751 194.734 152.984 208.161" stroke="white" stroke-width="4" stroke-linecap="round" stroke-linejoin="round"/>
</g>
<defs>
<clipPath id="clip0_5921_1633">
<rect width="300" height="300" fill="white"/>
</clipPath>
</defs>
</svg>
