<svg width="300" height="300" viewBox="0 0 300 300" fill="none" xmlns="http://www.w3.org/2000/svg">
<g clip-path="url(#clip0_5921_1623)">
<path d="M39.1063 177.768C29.9057 178.479 9.05726 180.67 -0.731445 183.743" stroke="white" stroke-width="4" stroke-linecap="round" stroke-linejoin="round"/>
<path d="M-1.11621 112.991C8.51321 113.105 30.317 111.959 40.4966 106.456C52.2174 100.121 64.2299 84.1564 67.3961 77.6454C67.8423 76.7279 68.5095 75.9264 69.4029 75.4336C83.6258 67.5886 110.618 49.7541 115.702 34.9109C115.779 34.6877 115.866 34.4763 115.98 34.2698C119.029 28.7522 126.024 21.9896 131.144 36.5677C131.239 36.8381 131.306 37.1235 131.33 37.4089C131.972 44.7777 128.807 62.1612 110.998 76.1925C102.285 85.0195 93.1145 103.43 126.13 106.456C152.725 109.666 211.006 117.117 231.365 121.244C239.045 123.173 251.764 129.505 241.206 139.403M241.206 139.403H162.433M241.206 139.403C247.456 140.389 259.192 152.439 241.206 159.612M241.206 159.612H157.69M241.206 159.612C245.369 163.186 247.351 177.273 231.365 178.171L211.507 178.575M150.267 179.821L211.507 178.575M211.507 178.575C212.835 184.225 210.334 195.77 189.7 196.743C138.259 202.084 34.052 202.136 28.75 159.612" stroke="white" stroke-width="4" stroke-linecap="round" stroke-linejoin="round"/>
<path d="M40.231 107.501C39.2796 110.859 38.3842 119.925 42.4135 129.326M51.3115 140.91C60.7691 143.597 83.6801 145.04 99.6629 129.326" stroke="white" stroke-width="4" stroke-linecap="round" stroke-linejoin="round"/>
</g>
<defs>
<clipPath id="clip0_5921_1623">
<rect width="300" height="300" fill="white"/>
</clipPath>
</defs>
</svg>
