<svg width="300" height="300" viewBox="0 0 300 300" fill="none" xmlns="http://www.w3.org/2000/svg">
<g clip-path="url(#clip0_5921_1628)">
<path d="M259.778 177.768C268.978 178.479 289.827 180.67 299.615 183.743" stroke="white" stroke-width="4" stroke-linecap="round" stroke-linejoin="round"/>
<path d="M300 112.991C290.371 113.105 268.567 111.959 258.387 106.456C246.666 100.121 234.654 84.1564 231.488 77.6454C231.041 76.7279 230.374 75.9264 229.481 75.4336C215.258 67.5886 188.266 49.7541 183.181 34.9109C183.105 34.6877 183.018 34.4763 182.904 34.2698C179.854 28.7522 172.86 21.9896 167.74 36.5677C167.645 36.8381 167.578 37.1235 167.553 37.4089C166.912 44.7777 170.077 62.1612 187.886 76.1925C196.598 85.0195 205.769 103.43 172.754 106.456C146.159 109.666 87.8777 117.117 67.5183 121.244C59.8391 123.173 47.1201 129.505 57.6781 139.403M57.6781 139.403H136.451M57.6781 139.403C51.4281 140.389 39.6921 152.439 57.6781 159.612M57.6781 159.612H141.194M57.6781 159.612C53.5153 163.186 51.5329 177.273 67.5183 178.171L87.3769 178.575M148.617 179.821L87.3769 178.575M87.3769 178.575C86.0484 184.225 88.5499 195.77 109.184 196.743C160.625 202.084 264.832 202.136 270.134 159.612" stroke="white" stroke-width="4" stroke-linecap="round" stroke-linejoin="round"/>
<path d="M258.653 107.501C259.604 110.859 260.5 119.925 256.47 129.326M247.572 140.91C238.115 143.597 215.204 145.04 199.221 129.326" stroke="white" stroke-width="4" stroke-linecap="round" stroke-linejoin="round"/>
</g>
<defs>
<clipPath id="clip0_5921_1628">
<rect width="300" height="300" fill="white"/>
</clipPath>
</defs>
</svg>
