<svg width="300" height="400" viewBox="0 0 300 400" fill="none" xmlns="http://www.w3.org/2000/svg">
  <!-- Right profile face outline (mirrored) -->
  <path d="M 230 100 Q 260 80 260 140 Q 260 200 230 250 Q 200 300 150 300 Q 100 300 70 270 Q 40 240 40 190 Q 40 140 70 120 Q 100 100 150 100 Q 190 100 230 100" stroke="white" stroke-width="4" fill="none" opacity="0.9"/>
  <!-- Profile nose -->
  <path d="M 260 180 Q 275 190 265 205 Q 255 210 245 200" stroke="white" stroke-width="3" fill="none"/>
  <!-- Profile eye -->
  <circle cx="170" cy="160" r="12" stroke="white" stroke-width="3" fill="none"/>
  <!-- Profile mouth -->
  <path d="M 250 230 Q 235 240 220 230" stroke="white" stroke-width="3" fill="none"/>
  <!-- Ear -->
  <ellipse cx="70" cy="170" rx="20" ry="35" stroke="white" stroke-width="3" fill="none"/>
  <text x="150" y="50" fill="white" font-size="16" font-weight="bold">RIGHT PROFILE</text>
</svg>