<svg width="300" height="300" viewBox="0 0 300 300" fill="none" xmlns="http://www.w3.org/2000/svg">
<g clip-path="url(#clip0_5921_1480)">
<path d="M0.0854506 131.185C7.35422 131.68 25.2159 131.227 39.1406 125.538C39.4862 125.396 39.7974 125.211 40.0882 124.977C53.9499 113.822 81.5976 92.0167 88.0819 88.5578C88.4837 88.3435 88.9187 88.2443 89.3732 88.2158C99.0977 87.6075 116.959 86.836 122.776 87.7992C123.838 87.9751 124.504 88.847 124.82 89.8759C126.945 96.7861 133.516 109.591 146.582 116.826C147.113 117.12 147.711 117.271 148.318 117.304C157.747 117.817 171.547 122.089 163.699 135.38C162.323 137.71 163.093 140.877 165.325 142.407C171.468 146.616 176.294 154.142 166.833 163.809C165.096 165.583 164.998 168.491 166.594 170.393C172.184 177.053 175.618 186.86 160.591 191.45C158.278 192.157 156.886 194.604 156.949 197.022C157.118 203.516 152.787 210.824 134.717 207.671C134.133 207.569 133.531 207.582 132.956 207.728C107.778 214.134 60.8383 218.191 40.1314 194.237M31.42 177.06C33.1174 183.951 36.1361 189.616 40.1314 194.237M40.1314 194.237C31.5066 195.334 11.3537 198.069 -0.259766 200.238" stroke="white" stroke-width="4" stroke-linecap="round" stroke-linejoin="round"/>
<path d="M40.1723 125.395C39.1187 129.035 37.8734 138.356 41.3218 146.517M50.5669 157.409C59.6093 160.065 81.9329 161.919 98.8874 148.084M103.296 120.957C106.347 115.192 113.502 105.596 117.707 113.327C121.833 120.505 133.61 131.435 147.717 117.735" stroke="white" stroke-width="4" stroke-linecap="round" stroke-linejoin="round"/>
<path d="M135.804 124.442L108.802 141.415C108.548 141.575 108.313 141.76 108.106 141.976C104.364 145.863 100.394 152.687 113.169 154.129C113.438 154.159 113.721 154.16 113.99 154.131C133.697 152.052 151.219 145.665 162.875 137.117" stroke="white" stroke-width="4" stroke-linecap="round" stroke-linejoin="round"/>
<path d="M112.02 154.173C108.577 152.139 95.9024 168.099 112.02 170.134C128.137 172.168 157.786 168.564 166.031 164.828" stroke="white" stroke-width="4" stroke-linecap="round" stroke-linejoin="round"/>
<path d="M108.272 169.668C103.573 174.409 102.837 178.827 110.907 180.931C130.604 186.065 150.973 192.226 157.395 193.346" stroke="white" stroke-width="4" stroke-linecap="round" stroke-linejoin="round"/>
<path d="M110.712 180.747C106.982 183.491 102.272 189.986 113.27 194.014C122.461 197.85 113.989 194.733 146.757 208.16" stroke="white" stroke-width="4" stroke-linecap="round" stroke-linejoin="round"/>
</g>
<defs>
<clipPath id="clip0_5921_1480">
<rect width="300" height="300" fill="white"/>
</clipPath>
</defs>
</svg>
