<svg width="300" height="300" viewBox="0 0 300 300" fill="none" xmlns="http://www.w3.org/2000/svg">
<g clip-path="url(#clip0_5921_1488)">
<path d="M299.655 131.185C292.386 131.68 274.524 131.227 260.6 125.538C260.254 125.396 259.943 125.211 259.652 124.977C245.79 113.822 218.143 92.0167 211.658 88.5578C211.257 88.3435 210.822 88.2443 210.367 88.2158C200.643 87.6075 182.781 86.836 176.965 87.7992C175.903 87.9751 175.236 88.847 174.92 89.8759C172.795 96.7861 166.224 109.591 153.159 116.826C152.627 117.12 152.029 117.271 151.422 117.304C141.994 117.817 128.193 122.089 136.041 135.38C137.417 137.71 136.647 140.877 134.415 142.407C128.273 146.616 123.446 154.142 132.908 163.809C134.644 165.583 134.742 168.491 133.146 170.393C127.556 177.053 124.122 186.86 139.149 191.45C141.462 192.157 142.854 194.604 142.791 197.022C142.623 203.516 146.953 210.824 165.023 207.671C165.607 207.569 166.209 207.582 166.784 207.728C191.962 214.134 238.902 218.191 259.609 194.237M268.32 177.06C266.623 183.951 263.604 189.616 259.609 194.237M259.609 194.237C268.234 195.334 288.386 198.069 300 200.238" stroke="white" stroke-width="4" stroke-linecap="round" stroke-linejoin="round"/>
<path d="M259.568 125.395C260.622 129.035 261.867 138.356 258.418 146.517M249.173 157.409C240.131 160.065 217.807 161.919 200.853 148.084M196.445 120.957C193.393 115.192 186.238 105.596 182.033 113.327C177.908 120.505 166.13 131.435 152.024 117.735" stroke="white" stroke-width="4" stroke-linecap="round" stroke-linejoin="round"/>
<path d="M163.936 124.442L190.938 141.415C191.192 141.575 191.427 141.76 191.635 141.976C195.376 145.863 199.347 152.687 186.571 154.129C186.303 154.159 186.02 154.16 185.751 154.131C166.043 152.052 148.521 145.665 136.865 137.117" stroke="white" stroke-width="4" stroke-linecap="round" stroke-linejoin="round"/>
<path d="M187.721 154.173C191.163 152.139 203.838 168.099 187.721 170.134C171.603 172.168 141.954 168.564 133.71 164.828" stroke="white" stroke-width="4" stroke-linecap="round" stroke-linejoin="round"/>
<path d="M191.468 169.668C196.168 174.409 196.903 178.827 188.833 180.931C169.136 186.065 148.768 192.226 142.345 193.346" stroke="white" stroke-width="4" stroke-linecap="round" stroke-linejoin="round"/>
<path d="M189.028 180.747C192.758 183.491 197.468 189.986 186.471 194.014C177.28 197.85 185.751 194.733 152.984 208.16" stroke="white" stroke-width="4" stroke-linecap="round" stroke-linejoin="round"/>
</g>
<defs>
<clipPath id="clip0_5921_1488">
<rect width="300" height="300" fill="white"/>
</clipPath>
</defs>
</svg>
