<svg width="300" height="300" viewBox="0 0 300 300" fill="none" xmlns="http://www.w3.org/2000/svg">
<g clip-path="url(#clip0_5921_1501)">
<path d="M259.778 214.28C268.978 214.992 289.827 217.183 299.615 220.256" stroke="white" stroke-width="4" stroke-linecap="round" stroke-linejoin="round"/>
<path d="M300 149.503C290.371 149.617 268.567 148.471 258.387 142.969C246.666 136.633 234.654 120.669 231.488 114.158C231.041 113.24 230.374 112.439 229.481 111.946C215.258 104.101 188.266 86.2663 183.181 71.4231C183.105 71.1999 183.018 70.9886 182.904 70.782C179.854 65.2644 172.86 58.5019 167.74 73.08C167.645 73.3503 167.578 73.6357 167.553 73.9211C166.912 81.2899 170.077 98.6734 187.886 112.705C196.598 121.532 205.769 139.942 172.754 142.969C146.159 146.178 87.8777 153.63 67.5183 157.757C59.8391 159.685 47.1201 166.017 57.6781 175.915M57.6781 175.915H136.451M57.6781 175.915C51.4281 176.901 39.6921 188.951 57.6781 196.124M57.6781 196.124H141.194M57.6781 196.124C53.5153 199.699 51.5329 213.785 67.5183 214.683L87.3769 215.087M148.617 216.333L87.3769 215.087M87.3769 215.087C86.0484 220.738 88.5499 232.282 109.184 233.255C160.625 238.597 264.832 238.649 270.134 196.124" stroke="white" stroke-width="4" stroke-linecap="round" stroke-linejoin="round"/>
<path d="M258.653 144.013C259.604 147.37 260.5 156.436 256.47 165.838M247.572 177.422C238.115 180.108 215.204 181.552 199.221 165.838" stroke="white" stroke-width="4" stroke-linecap="round" stroke-linejoin="round"/>
</g>
<defs>
<clipPath id="clip0_5921_1501">
<rect width="300" height="300" fill="white"/>
</clipPath>
</defs>
</svg>
