<svg width="300" height="300" viewBox="0 0 300 300" fill="none" xmlns="http://www.w3.org/2000/svg">
<g clip-path="url(#clip0_5921_1496)">
<path d="M39.1063 214.28C29.9057 214.992 9.05726 217.183 -0.731445 220.256" stroke="white" stroke-width="4" stroke-linecap="round" stroke-linejoin="round"/>
<path d="M-1.11621 149.503C8.51321 149.617 30.317 148.471 40.4966 142.969C52.2174 136.633 64.2299 120.669 67.3961 114.158C67.8423 113.24 68.5095 112.439 69.4029 111.946C83.6258 104.101 110.618 86.2663 115.702 71.4231C115.779 71.1999 115.866 70.9886 115.98 70.782C119.029 65.2644 126.024 58.5019 131.144 73.08C131.239 73.3503 131.306 73.6357 131.33 73.9211C131.972 81.2899 128.807 98.6734 110.998 112.705C102.285 121.532 93.1145 139.942 126.13 142.969C152.725 146.178 211.006 153.63 231.365 157.757C239.045 159.685 251.764 166.017 241.206 175.915M241.206 175.915H162.433M241.206 175.915C247.456 176.901 259.192 188.951 241.206 196.124M241.206 196.124H157.69M241.206 196.124C245.369 199.699 247.351 213.785 231.365 214.683L211.507 215.087M150.267 216.333L211.507 215.087M211.507 215.087C212.835 220.738 210.334 232.282 189.7 233.255C138.259 238.597 34.052 238.649 28.75 196.124" stroke="white" stroke-width="4" stroke-linecap="round" stroke-linejoin="round"/>
<path d="M40.231 144.013C39.2796 147.37 38.3842 156.436 42.4135 165.838M51.3115 177.422C60.7691 180.108 83.6801 181.552 99.6629 165.838" stroke="white" stroke-width="4" stroke-linecap="round" stroke-linejoin="round"/>
</g>
<defs>
<clipPath id="clip0_5921_1496">
<rect width="300" height="300" fill="white"/>
</clipPath>
</defs>
</svg>
